# xmcd
#
# Track frame offsets: 
#        150
#        22240
#        40927
#        63115
#        82517
#        101154
#        119430
#        142082
#        162340
#        182975
#        208075
#
# Disc length: 3086 seconds
#
# Revision: 7
# Processed by: cddbd v1.5.2PL0 Copyright (c) Steve Scherf et al.
# Submitted via: ExactAudioCopy v0.99pb4
#
DISCID=9a0c0c0b
DTITLE=Various Artist - Salsa Mundo
DYEAR=1997
DGENRE=Salsa
TTITLE0=Ricardo Lemvo and Makina Loca - Africa, Havana, Paris
TTITLE1=Salsamania - Rampa Rumba
TTITLE2=Fatal Mambo - Probleme
TTITLE3=Orquesta del Sol - Campanero
TTITLE4=Malavoi - Ti Djo'
TTITLE5=Beethova Obas - Si... (Oh...Oh !)
TTITLE6=Nueva Manteca - En Cualquier Clave
TTITLE7=African Fiesta - Paquita
TTITLE8=Jerusalem Salsa Band - Oye me Israel
TTITLE9=Bago - No Voleré
TTITLE10=Hot Salsa - Mi Rumba Esta Buena
EXTD=YEAR: 1997
EXTT0=
EXTT1=
EXTT2=
EXTT3=
EXTT4=
EXTT5=
EXTT6=
EXTT7=
EXTT8=
EXTT9=
EXTT10=
PLAYORDER=
